<?xml version="1.0" standalone="no"?>
<!DOCTYPE svg PUBLIC "-//W3C//DTD SVG 20010904//EN"
 "http://www.w3.org/TR/2001/REC-SVG-20010904/DTD/svg10.dtd">
<svg version="1.0" xmlns="http://www.w3.org/2000/svg"
 width="260.000000pt" height="260.000000pt" viewBox="0 0 260.000000 260.000000"
 preserveAspectRatio="xMidYMid meet">
<metadata>
Created by potrace 1.11, written by Peter Selinger 2001-2013
</metadata>
<g transform="translate(0.000000,260.000000) scale(0.100000,-0.100000)"
fill="#000000" stroke="none">
<path d="M927 2583 c3 -7 -2 -13 -12 -13 -10 0 -14 5 -9 13 4 6 3 9 -1 4 -5
-4 -10 -18 -11 -30 -2 -12 0 -16 2 -9 3 6 10 12 15 12 6 0 7 -4 4 -10 -3 -5
-3 -16 2 -22 11 -19 13 -39 2 -32 -5 3 -7 9 -4 14 3 5 1 11 -5 15 -5 3 -10 2
-10 -3 0 -6 -7 -13 -16 -16 -14 -5 -15 -4 -4 9 7 8 9 15 4 16 -5 0 -19 2 -31
3 -12 1 -22 0 -21 -3 2 -19 -4 -24 -12 -11 -7 11 -10 11 -10 2 0 -7 -4 -11 -9
-8 -12 8 -8 -27 4 -37 6 -5 3 -7 -7 -3 -10 3 -21 -1 -26 -11 -8 -14 -10 -13
-15 1 -4 10 -3 15 3 11 6 -3 7 1 4 9 -3 9 -1 16 6 16 6 0 8 -5 4 -12 -4 -7 -3
-8 5 -4 16 10 5 25 -18 23 -14 -1 -17 -8 -15 -37 2 -28 1 -31 -7 -17 -8 14
-14 16 -25 6 -11 -9 -17 -9 -29 1 -10 9 -15 9 -15 1 0 -6 4 -11 9 -11 5 0 11
-9 14 -19 3 -15 1 -18 -11 -14 -10 4 -13 2 -8 -5 5 -8 2 -10 -10 -5 -14 5 -15
3 -4 -18 13 -24 13 -24 -7 -4 -14 14 -17 22 -9 27 8 6 7 8 -1 8 -7 0 -10 7 -6
18 3 9 3 14 -1 10 -4 -3 -9 -12 -10 -20 -5 -27 -18 -58 -24 -59 -4 0 -18 -2
-32 -5 -19 -3 -21 -2 -10 6 9 6 10 10 3 10 -6 0 -18 -6 -26 -14 -10 -10 -18
-11 -25 -4 -6 6 -12 6 -17 -1 -4 -7 -1 -10 7 -9 8 2 12 -5 10 -17 -3 -18 -2
-18 13 3 13 17 20 20 34 12 10 -5 22 -6 26 -2 5 4 5 2 2 -4 -4 -6 -18 -10 -32
-9 -22 3 -30 -5 -26 -28 1 -4 -8 -2 -18 5 -11 7 -18 16 -15 20 3 4 -2 5 -11 2
-14 -6 -13 -8 5 -21 25 -18 19 -30 -16 -30 -17 0 -22 2 -13 7 6 5 19 6 27 2
10 -3 13 -1 8 7 -4 6 -15 11 -24 9 -10 -1 -24 2 -32 7 -13 8 -13 7 -1 -8 13
-17 13 -18 -11 -21 -7 0 -13 -7 -13 -13 0 -7 -3 -12 -7 -10 -3 1 -17 -8 -30
-21 -14 -12 -26 -21 -29 -20 -2 2 -1 -1 3 -7 15 -17 8 -27 -9 -14 -12 10 -15
10 -9 1 5 -8 -1 -15 -16 -21 -21 -9 -21 -10 -3 -10 17 -1 16 -4 -10 -25 -16
-13 -34 -22 -40 -19 -5 3 -4 0 3 -8 8 -9 15 -10 20 -4 16 23 40 36 47 25 4 -6
3 -10 -2 -9 -20 4 -27 -2 -13 -12 13 -9 12 -10 -2 -5 -20 6 -34 -10 -16 -17
10 -4 9 -6 -1 -6 -11 -1 -11 -4 0 -18 11 -15 11 -16 -1 -5 -16 14 -34 16 -26
4 3 -5 -2 -9 -11 -9 -13 0 -12 4 5 18 21 16 21 17 2 22 -14 3 -17 1 -13 -11 4
-10 2 -13 -6 -8 -7 5 -10 2 -9 -6 2 -7 -2 -12 -9 -11 -7 2 -10 -3 -7 -11 3 -8
1 -17 -5 -21 -6 -3 -11 1 -11 9 0 8 -4 18 -10 21 -7 4 -7 -3 0 -20 14 -36 13
-40 -7 -24 -16 13 -17 12 -4 -3 7 -10 17 -16 21 -13 5 3 12 0 16 -6 5 -8 -1
-10 -19 -7 -23 5 -25 3 -16 -15 7 -13 8 -22 1 -29 -6 -6 -8 -17 -5 -24 3 -8 0
-14 -7 -14 -6 0 -8 -4 -5 -10 4 -6 -1 -7 -11 -3 -12 4 -15 3 -10 -5 5 -8 2
-10 -8 -6 -9 3 -13 10 -10 15 3 5 -2 6 -11 2 -12 -4 -13 -8 -5 -13 9 -5 9 -9
1 -14 -16 -10 -14 -26 3 -26 8 0 18 -5 22 -12 4 -7 3 -8 -4 -4 -7 4 -12 2 -12
-3 0 -6 -5 -11 -11 -11 -5 0 -7 5 -3 12 4 6 3 8 -4 4 -5 -3 -12 -3 -15 1 -2 5
-2 3 -1 -4 2 -6 -2 -14 -9 -17 -9 -3 -9 -5 1 -5 19 -1 14 -21 -5 -21 -15 0
-16 -2 -3 -10 11 -7 17 -4 24 10 5 11 14 20 20 20 6 0 5 -5 -2 -12 -17 -17
-15 -33 2 -19 11 9 16 9 22 0 4 -7 3 -9 -4 -5 -6 3 -15 -2 -21 -11 -6 -11 -11
-13 -11 -5 0 7 -4 11 -8 8 -5 -3 -8 -19 -7 -36 2 -30 2 -30 -17 -10 -28 30
-32 24 -8 -10 18 -25 19 -34 10 -45 -10 -12 -10 -18 0 -30 11 -13 10 -14 -3
-9 -22 8 -29 31 -11 38 8 3 14 11 14 17 0 8 -7 5 -19 -5 -23 -21 -21 -43 5
-64 14 -11 15 -13 3 -9 -9 3 -22 0 -28 -6 -15 -15 -14 -30 2 -20 18 11 38 13
31 2 -3 -5 -9 -7 -14 -4 -5 3 -12 0 -16 -6 -3 -6 0 -15 7 -20 8 -5 9 -9 3 -9
-7 0 -19 11 -28 25 -9 14 -12 25 -7 25 6 0 8 9 6 20 -2 11 1 22 6 25 5 4 6 11
3 17 -4 6 3 18 16 28 17 13 20 19 10 25 -8 5 -11 4 -6 -3 8 -14 -15 -21 -35
-11 -10 5 -16 3 -16 -6 0 -7 6 -11 14 -8 9 4 11 0 7 -11 -3 -9 -9 -14 -13 -12
-14 9 -6 -99 8 -110 11 -9 12 -12 1 -19 -9 -5 -11 -4 -6 3 4 7 2 12 -3 12 -6
0 -11 -9 -11 -21 0 -13 4 -18 12 -13 10 6 10 4 2 -7 -16 -19 -16 -378 0 -398
7 -10 8 -13 0 -8 -21 12 -14 -50 8 -70 21 -17 21 -17 15 0 -4 10 -7 23 -7 28
0 6 -5 7 -12 3 -7 -4 -8 -3 -4 5 9 14 26 5 26 -15 0 -8 5 -12 10 -9 6 4 7 11
4 17 -4 7 -2 8 5 4 8 -5 7 -13 -4 -29 -13 -19 -13 -23 1 -38 14 -16 14 -20 -2
-43 -15 -24 -15 -28 0 -44 11 -13 13 -22 6 -30 -6 -7 -7 -10 -4 -7 4 3 13 0
21 -6 11 -10 11 -15 1 -27 -10 -13 -10 -14 0 -8 18 11 15 -5 -5 -21 -16 -13
-16 -13 3 -4 12 6 25 7 29 3 4 -4 2 3 -4 16 -12 22 -11 23 7 13 11 -6 23 -7
28 -3 5 4 2 -2 -7 -13 -9 -11 -19 -28 -22 -38 -4 -11 -12 -15 -18 -11 -8 4 -9
3 -5 -5 5 -8 12 -9 20 -2 6 5 19 9 29 7 21 -3 47 -26 30 -26 -6 0 -13 5 -15
12 -3 8 -7 9 -11 2 -3 -6 3 -21 14 -32 11 -12 15 -22 10 -22 -12 0 -36 41 -32
55 1 6 -3 5 -9 -2 -10 -9 -7 -17 9 -34 12 -13 19 -29 17 -36 -3 -7 -1 -15 5
-18 5 -4 8 -1 7 6 -2 6 2 13 8 16 7 2 10 -5 7 -21 -3 -16 -10 -23 -17 -19 -6
3 -7 2 -3 -3 5 -5 13 -10 18 -10 22 -3 23 -5 12 -12 -9 -6 -7 -11 6 -19 16
-10 19 -9 16 5 -2 9 -4 19 -5 22 -1 3 -2 9 -1 13 1 5 -2 6 -7 3 -5 -3 -9 1 -9
9 0 13 3 13 17 0 9 -8 20 -12 23 -8 4 3 7 1 7 -5 0 -7 -5 -12 -11 -12 -8 0 -8
-5 1 -15 7 -8 16 -12 21 -9 13 8 11 -10 -4 -25 -10 -11 -9 -13 6 -8 23 9 32
-15 17 -43 -10 -18 -9 -24 1 -31 23 -14 34 -10 14 4 -14 11 -15 16 -5 22 9 5
11 4 6 -3 -4 -7 -2 -12 3 -12 6 0 11 6 11 14 0 8 4 17 8 20 4 2 8 -4 8 -15 0
-10 -4 -19 -8 -19 -4 0 -5 -9 -3 -19 3 -15 -1 -18 -13 -14 -9 3 0 -9 20 -27
21 -18 36 -36 33 -40 -3 -4 3 -14 12 -21 12 -10 14 -10 9 -1 -4 7 -1 12 8 12
9 0 16 5 16 12 0 6 3 8 6 5 4 -4 1 -14 -7 -24 -12 -15 -12 -16 4 -10 12 5 16
3 11 -5 -5 -8 -2 -9 9 -5 9 3 19 2 22 -4 4 -5 11 -7 16 -3 5 3 9 2 8 -3 -1 -4
0 -10 1 -13 7 -19 7 -39 -1 -34 -5 3 -6 10 -3 16 5 7 2 8 -6 3 -9 -6 -11 -4
-5 5 6 9 4 11 -5 5 -8 -5 -11 -4 -6 3 3 6 2 13 -4 17 -5 3 -10 0 -10 -9 0 -8
-3 -16 -7 -19 -5 -2 -3 -2 4 -1 15 4 35 -20 25 -30 -4 -4 0 -6 8 -4 10 2 15
-4 14 -20 -1 -16 2 -20 11 -12 6 5 15 7 18 3 4 -3 7 -1 7 6 0 7 -6 11 -14 8
-9 -4 -13 0 -11 11 2 9 4 20 4 25 1 4 6 7 12 7 8 0 7 -6 -2 -17 -12 -15 -12
-16 4 -10 11 4 16 3 12 -3 -3 -6 -2 -10 4 -10 5 0 9 -9 8 -20 -1 -11 -5 -20
-10 -20 -4 0 -5 -5 -1 -11 4 -8 9 -7 15 2 8 11 13 10 27 -6 22 -25 37 -28 65
-14 18 9 20 9 9 -2 -14 -15 -16 -29 -3 -29 5 0 13 9 16 20 3 11 11 20 17 20 6
0 6 -6 -2 -15 -7 -9 -10 -19 -6 -22 4 -4 11 -1 16 7 6 10 8 1 4 -25 -5 -38 -4
-39 8 -15 7 14 22 26 33 28 l20 2 -20 -12 c-11 -7 -21 -22 -22 -33 -2 -18 -1
-18 9 2 12 25 23 29 33 13 5 -8 11 -7 21 1 10 8 14 8 14 0 0 -6 -3 -11 -7 -12
-5 0 -16 -2 -26 -4 -10 -2 -14 1 -11 7 4 7 2 8 -4 4 -23 -14 -11 -23 28 -22
22 0 40 5 40 10 0 5 2 7 5 4 8 -8 -6 -38 -17 -38 -5 0 -7 4 -4 8 3 5 -1 9 -9
9 -8 0 -15 -4 -15 -9 0 -8 6 -9 40 -12 9 -1 14 -10 13 -21 -1 -20 -1 -20 12
-1 16 21 10 40 -7 30 -7 -5 -8 -2 -4 5 5 7 11 10 14 7 3 -3 11 -1 18 5 14 11
14 -3 -1 -46 -6 -16 -5 -17 4 -5 9 13 11 13 12 0 1 -8 1 -18 1 -21 -1 -3 5 -6
12 -6 6 0 13 10 14 21 1 17 -1 18 -8 6 -7 -10 -10 -11 -10 -2 0 6 0 15 0 19 0
3 12 7 27 9 16 1 22 0 16 -3 -7 -2 -13 -11 -13 -19 0 -8 6 -14 13 -14 8 0 7
-4 -3 -10 -8 -5 -10 -10 -4 -10 6 0 14 3 17 6 11 11 77 14 77 3 0 -6 -4 -8 -8
-5 -4 2 -14 1 -22 -4 -13 -8 -12 -12 3 -27 16 -16 42 -18 270 -19 176 -1 256
2 266 10 11 8 13 8 7 -1 -5 -9 0 -12 18 -11 15 1 26 7 26 13 0 7 3 7 8 -1 4
-5 41 -10 84 -10 62 0 75 2 66 13 -12 15 -22 17 -13 3 7 -11 -8 -14 -18 -4 -9
10 4 34 16 27 6 -4 7 -1 2 7 -6 10 -4 12 8 7 9 -3 19 -2 22 3 4 6 11 10 17 10
6 0 5 -7 -3 -17 -12 -16 -12 -17 2 -6 9 7 19 10 22 6 4 -3 7 -3 7 1 0 15 -29
36 -35 26 -4 -6 -11 -7 -17 -4 -7 5 -8 2 -3 -6 6 -9 4 -11 -4 -6 -13 9 -6 21
12 21 7 1 11 6 10 11 -1 6 4 11 12 11 8 0 12 -4 9 -9 -5 -8 10 -12 35 -9 7 2
11 -2 7 -7 -3 -5 1 -9 9 -9 8 0 12 4 9 8 -2 4 -1 9 3 12 5 2 2 2 -5 0 -7 -1
-10 1 -7 6 3 5 1 12 -5 16 -5 3 -10 1 -10 -4 0 -6 -5 -11 -12 -11 -6 0 -4 7 5
18 10 10 14 22 10 27 -5 4 -2 5 5 1 7 -4 10 -12 7 -17 -4 -5 4 -13 16 -17 17
-7 28 -3 48 17 14 14 25 30 23 34 -1 5 2 6 8 2 6 -3 8 -10 5 -15 -3 -4 2 -11
11 -14 11 -4 15 -2 11 8 -3 8 1 17 10 20 12 5 13 9 3 21 -7 8 -17 12 -23 8 -6
-4 -7 -1 -3 6 6 9 12 8 26 -4 10 -9 24 -14 30 -10 6 4 17 2 25 -5 10 -8 15 -8
21 1 4 7 3 9 -4 5 -18 -11 -11 53 7 66 13 10 14 10 4 -2 -15 -16 -17 -34 -4
-25 5 3 13 0 17 -6 4 -7 3 -9 -4 -5 -6 3 -14 1 -18 -6 -4 -7 -4 -10 1 -6 4 4
14 0 22 -10 12 -15 12 -15 7 0 -6 19 30 43 48 32 6 -4 8 -3 4 4 -3 6 2 15 11
21 16 9 16 10 -4 8 -12 0 -19 -5 -16 -11 3 -5 1 -6 -5 -2 -7 4 -12 3 -12 -2 0
-6 -7 -12 -15 -16 -9 -3 -15 0 -15 9 0 8 6 14 13 13 7 -2 11 6 10 22 -2 16 0
20 5 10 11 -22 36 -25 28 -3 -6 14 -5 16 5 5 20 -19 26 -15 33 23 4 19 11 37
16 40 6 4 6 -3 0 -19 -6 -17 -6 -26 0 -26 6 0 10 7 10 15 0 13 4 14 21 4 13
-7 19 -7 15 -1 -3 6 -2 13 4 17 5 3 10 0 10 -7 1 -14 24 21 25 37 0 6 9 9 20
7 16 -2 17 -1 5 7 -9 6 -18 6 -26 0 -8 -7 -14 -6 -19 1 -6 10 -5 12 18 14 6 0
12 7 12 15 0 8 10 16 23 18 17 2 21 -1 16 -9 -5 -9 -2 -9 9 1 9 7 17 19 17 25
0 6 -5 4 -10 -4 -6 -9 -10 -11 -10 -3 0 7 -6 10 -14 7 -18 -7 -30 12 -15 22 7
4 9 3 5 -4 -4 -7 2 -10 15 -9 14 1 25 11 31 28 5 15 17 30 26 34 15 6 15 8 -3
15 -17 7 -16 8 7 7 l28 -1 -27 -28 c-15 -15 -22 -28 -16 -28 6 0 13 7 17 15 3
8 9 14 13 13 4 -2 8 1 8 6 0 5 10 13 23 17 22 8 22 10 7 33 -11 16 -13 26 -5
31 6 3 7 12 4 18 -4 7 -4 9 1 5 4 -4 15 -2 23 5 13 9 14 9 8 0 -11 -19 2 -15
24 7 11 11 15 20 9 20 -5 0 -7 5 -4 10 4 6 10 8 15 5 5 -3 7 4 5 15 -2 12 2
23 10 27 8 3 12 9 9 14 -3 5 1 9 8 9 7 1 2 7 -12 15 -14 8 -20 14 -13 15 6 0
10 11 9 25 -2 13 2 23 8 22 6 -1 10 6 10 15 -1 10 3 15 9 11 6 -4 8 0 4 9 -7
20 21 18 34 -3 5 -9 9 -9 9 -2 0 6 -7 18 -15 26 -12 13 -12 16 0 20 8 4 16 -1
18 -11 3 -12 5 -10 6 6 1 19 -3 22 -26 17 -25 -6 -26 -5 -8 6 28 17 28 16 20
29 -5 8 -12 5 -22 -7 -13 -17 -13 -16 -3 5 6 12 15 20 19 17 5 -2 11 4 14 15
5 21 -2 25 -19 13 -5 -5 1 1 13 12 17 16 19 24 12 38 -6 10 -8 23 -5 30 2 7 5
4 5 -6 1 -10 5 -16 9 -13 4 2 14 0 22 -6 12 -8 11 -9 -3 -4 -15 5 -17 2 -12
-14 4 -12 2 -20 -5 -20 -6 0 -8 -5 -5 -10 4 -6 11 -8 16 -5 5 3 6 -1 3 -9 -3
-9 -11 -16 -18 -16 -6 0 -4 -5 4 -10 10 -6 11 -10 3 -10 -7 0 -13 -5 -13 -12
0 -6 3 -8 7 -5 3 4 11 -1 18 -10 9 -13 14 -13 20 -3 5 8 4 11 -2 7 -6 -4 -14
0 -17 9 -4 11 -2 15 7 11 8 -3 14 1 14 8 0 7 -6 11 -14 8 -9 -4 -11 0 -7 11 3
9 9 14 13 12 4 -3 7 4 7 14 0 10 -4 16 -8 14 -4 -3 -8 0 -8 5 0 6 5 11 10 11
6 0 10 7 10 15 0 8 -6 15 -12 15 -9 0 -10 3 -2 8 16 10 16 75 1 65 -9 -5 -9
-3 0 8 7 9 11 75 11 207 0 163 -2 191 -14 181 -20 -16 -17 -4 3 16 16 16 16
18 0 27 -19 10 -23 28 -6 28 5 0 7 -4 4 -10 -3 -5 -2 -10 3 -10 5 0 9 24 8 54
-1 42 -4 52 -13 44 -9 -7 -13 -7 -13 0 0 6 8 16 18 21 9 6 12 11 5 11 -6 0
-15 -5 -18 -10 -4 -6 -11 -7 -17 -4 -6 4 -5 9 3 15 7 4 10 11 6 16 -5 4 -11 3
-15 -2 -4 -6 -18 -11 -32 -13 l-25 -3 24 13 c26 14 36 44 19 54 -5 3 -15 1
-21 -5 -9 -9 -7 -10 8 -5 17 7 18 5 8 -8 -7 -8 -10 -17 -7 -21 3 -3 -1 -4 -10
-3 -8 1 -19 6 -23 11 -4 4 -3 5 3 2 7 -4 12 3 11 18 0 22 -2 24 -15 13 -13
-12 -14 -11 -2 9 11 17 18 20 34 12 18 -9 19 -8 5 3 -9 7 -14 18 -13 23 2 6
-5 21 -16 35 -15 18 -18 20 -13 6 5 -15 3 -17 -8 -11 -12 8 -12 6 0 -8 7 -9
18 -14 23 -10 6 3 9 0 6 -7 -2 -7 -15 -20 -29 -28 -22 -13 -22 -13 -5 1 16 14
17 18 3 31 -8 8 -18 12 -22 8 -4 -4 -1 4 6 18 8 14 17 27 21 30 3 3 0 14 -8
24 -11 16 -16 17 -29 6 -15 -12 -12 -30 5 -30 5 0 7 8 3 18 -4 13 -3 14 6 6 6
-6 9 -18 5 -28 -6 -16 -8 -16 -25 0 -17 15 -17 18 -1 43 16 25 16 25 -1 12
-10 -8 -20 -11 -24 -7 -3 3 -1 6 5 6 19 0 14 57 -4 64 -9 4 -19 4 -22 1 -3 -3
0 -5 6 -5 6 0 9 -8 6 -17 -5 -15 -4 -16 5 -3 8 12 10 11 9 -5 -1 -12 -9 -21
-17 -21 -11 0 -15 9 -14 31 2 46 2 47 11 41 5 -3 9 1 9 9 0 8 -4 12 -8 9 -15
-9 -21 17 -7 34 11 15 11 15 -3 5 -12 -10 -18 -9 -29 7 -8 11 -19 20 -24 20
-5 0 1 -11 13 -24 14 -15 20 -30 16 -37 -5 -7 -4 -10 3 -5 6 3 13 2 16 -3 4
-5 -7 -9 -24 -9 -26 1 -28 2 -12 14 16 12 16 14 -3 32 -12 10 -28 18 -38 16
-9 -1 -19 2 -22 6 -3 5 3 7 15 5 11 -2 22 0 25 6 4 5 1 9 -4 9 -6 0 -11 5 -11
11 0 5 4 7 10 4 15 -10 12 5 -6 22 -11 12 -18 13 -27 4 -6 -6 -15 -11 -20 -11
-5 0 -1 7 8 16 9 9 13 19 9 23 -4 3 -9 0 -11 -6 -3 -7 -9 -13 -14 -13 -6 0 -6
8 1 19 5 11 10 26 9 33 0 7 -4 3 -9 -9 -5 -13 -17 -23 -27 -22 -15 0 -15 2 -3
7 8 4 16 16 18 27 l4 20 -17 -20 c-15 -18 -16 -18 -11 -1 5 14 2 17 -9 12 -10
-4 -14 -2 -9 5 4 8 -1 9 -16 4 -20 -6 -21 -5 -9 8 8 8 17 13 20 11 3 -2 6 3 6
11 0 11 -4 12 -14 4 -7 -6 -13 -8 -13 -3 0 5 -4 4 -8 -2 -4 -6 -13 -4 -24 7
-16 17 -16 18 2 16 10 -1 16 -5 14 -9 -3 -4 2 -5 10 -2 9 3 16 10 16 16 0 5
-4 7 -9 3 -5 -3 -12 -1 -15 3 -3 5 -17 7 -32 4 -25 -5 -44 10 -44 33 1 6 5 2
11 -7 13 -22 25 -23 33 -2 5 14 4 15 -9 4 -12 -10 -15 -10 -15 3 0 8 -7 18
-16 21 -8 3 -12 2 -9 -4 3 -6 1 -10 -4 -10 -6 0 -11 5 -11 11 0 5 -4 8 -9 5
-4 -3 -16 1 -26 8 -14 10 -15 15 -5 21 9 6 11 4 5 -5 -5 -8 -4 -11 3 -6 5 3
12 0 15 -6 3 -7 4 -3 4 9 -1 12 -4 20 -8 17 -4 -2 -13 4 -19 13 -10 15 -11 15
-6 1 2 -9 -2 -19 -10 -22 -9 -3 -12 -1 -9 4 3 6 1 10 -6 10 -6 0 -9 8 -6 20 3
11 1 18 -3 15 -14 -9 -40 6 -33 19 5 7 2 7 -8 -1 -9 -8 -20 -9 -29 -3 -14 9
-13 11 9 14 5 0 12 4 15 8 3 5 3 6 -1 3 -3 -3 -12 0 -20 7 -9 7 -13 8 -11 1 2
-6 -1 -10 -7 -10 -5 1 -9 9 -8 17 1 11 -2 10 -12 -4 -14 -18 -71 -33 -60 -16
3 5 1 11 -5 15 -5 3 -10 0 -10 -7 0 -10 -3 -9 -9 1 -6 9 -6 22 0 32 6 12 5 20
-3 25 -6 4 -8 3 -5 -3 4 -6 -1 -17 -10 -24 -14 -12 -16 -12 -11 2 3 9 2 22 -4
30 -8 11 -9 11 -4 -3 3 -10 1 -20 -4 -23 -6 -4 -10 1 -10 9 0 9 -5 16 -11 16
-6 0 -8 -7 -4 -17 5 -14 3 -15 -6 -6 -6 6 -18 9 -25 6 -8 -3 -14 0 -14 7 0 6
3 9 8 6 4 -2 18 2 32 10 14 7 21 13 17 14 -5 0 -17 -5 -27 -10 -13 -7 -21 -7
-25 0 -3 5 -1 10 4 10 6 0 11 8 11 17 0 15 -1 15 -13 -1 -13 -18 -15 -17 -33
5 -14 18 -30 24 -62 26 -23 0 -40 -3 -37 -7 3 -5 19 -7 36 -5 24 3 29 0 25
-11 -3 -8 -2 -13 3 -10 5 3 14 -1 21 -9 7 -8 17 -12 23 -8 6 4 7 1 2 -7 -6 -9
-4 -11 6 -5 9 5 8 1 -3 -10 -18 -19 -43 -11 -34 11 3 8 -1 14 -10 14 -9 0 -12
-5 -8 -12 4 -6 -3 -4 -15 5 -13 8 -29 13 -37 10 -7 -2 -21 0 -31 6 -15 9 -13
10 12 5 l30 -7 -24 23 c-19 18 -25 20 -32 9 -7 -12 -9 -12 -9 0 0 11 -3 11
-17 0 -11 -9 -14 -10 -9 -2 5 10 -35 13 -184 13 -110 -1 -188 -4 -185 -10 3
-5 1 -12 -5 -15 -6 -4 -9 -1 -8 7 2 10 -15 13 -73 13 -52 0 -75 -3 -72 -11 2
-6 -3 -11 -12 -11 -9 0 -14 6 -11 12 2 6 -2 12 -9 12 -7 0 -11 -6 -8 -14z
m127 -10 c-9 -6 -22 -9 -30 -6 -8 3 -14 0 -14 -6 0 -6 5 -11 12 -11 6 0 8 -3
5 -7 -4 -3 -15 1 -26 11 -16 15 -19 15 -31 1 -11 -13 -10 -14 3 -10 8 4 18 1
22 -5 4 -7 -4 -9 -27 -5 -31 5 -32 4 -14 -10 11 -8 16 -15 11 -15 -17 0 -43
32 -38 47 5 12 7 12 14 1 7 -10 9 -11 9 0 0 7 4 11 9 7 5 -3 12 -1 16 4 3 6
13 7 22 4 9 -4 14 -2 11 3 -4 5 9 9 28 9 29 0 32 -2 18 -12z m607 -10 c13 -16
12 -17 -3 -4 -10 7 -18 15 -18 17 0 8 8 3 21 -13z m-577 -1 c2 -4 -5 -9 -17
-9 -17 -2 -19 0 -7 7 18 12 18 12 24 2z m416 2 c0 -8 -19 -13 -24 -6 -3 5 1 9
9 9 8 0 15 -2 15 -3z m45 -24 c3 -5 1 -10 -4 -10 -6 0 -11 5 -11 10 0 6 2 10
4 10 3 0 8 -4 11 -10z m-682 -21 c-6 -6 -9 -19 -6 -28 4 -14 3 -14 -7 -1 -9
11 -13 12 -17 2 -5 -13 -23 -7 -23 9 0 6 4 8 9 5 4 -3 17 1 27 9 23 17 32 19
17 4z m887 -39 c0 -5 -2 -10 -4 -10 -3 0 -8 5 -11 10 -3 6 -1 10 4 10 6 0 11
-4 11 -10z m-1030 -35 c-12 -14 -7 -19 13 -16 5 1 6 -3 2 -9 -5 -8 -11 -7 -21
1 -11 9 -11 15 -3 25 6 8 14 14 16 14 3 0 0 -7 -7 -15z m1218 -21 c14 8 46
-19 38 -33 -6 -8 -12 -9 -20 -2 -7 6 -17 7 -21 3 -5 -4 -5 -1 -1 6 7 12 -2 15
-34 13 -10 0 -11 2 -3 5 10 4 10 8 0 19 -7 7 -16 10 -21 7 -5 -3 -6 0 -1 7 5
9 13 7 30 -9 13 -12 28 -20 33 -16z m-64 -2 c3 -5 -1 -9 -9 -9 -8 0 -12 4 -9
9 3 4 7 8 9 8 2 0 6 -4 9 -8z m152 -84 c3 -4 -1 -5 -10 -4 -8 1 -18 5 -22 8
-3 4 1 5 10 4 8 -1 18 -5 22 -8z m58 -34 c3 -8 2 -12 -4 -9 -6 3 -10 10 -10
16 0 14 7 11 14 -7z m-1634 -36 c0 -4 -5 -8 -12 -8 -6 0 -3 -7 8 -16 18 -15
18 -15 -2 -5 -28 13 -39 2 -16 -16 15 -13 15 -13 -5 -4 -25 13 -54 5 -47 -13
4 -11 -27 -56 -39 -56 -3 0 -4 8 -3 18 2 9 9 17 17 17 8 0 14 7 14 16 0 19 25
52 33 44 7 -7 33 16 27 24 -2 4 2 8 10 8 8 0 15 -4 15 -9z m-40 -62 c0 -3 -4
-8 -10 -11 -5 -3 -10 -1 -10 4 0 6 5 11 10 11 6 0 10 -2 10 -4z m1895 -76 c3
-5 1 -10 -4 -10 -6 0 -11 5 -11 10 0 6 2 10 4 10 3 0 8 -4 11 -10z m-10 -28
c-3 -3 -11 0 -18 7 -9 10 -8 11 6 5 10 -3 15 -9 12 -12z m-2025 -63 c0 -14
-17 -10 -23 5 -4 10 -1 13 9 9 7 -3 14 -9 14 -14z m2070 1 c0 -5 -2 -10 -4
-10 -3 0 -8 5 -11 10 -3 6 -1 10 4 10 6 0 11 -4 11 -10z m-2104 -9 c-4 -5 0
-11 6 -14 7 -2 11 -7 8 -10 -9 -10 -33 10 -26 22 4 6 9 11 12 11 3 0 3 -4 0
-9z m-71 -165 c7 3 15 1 19 -4 3 -5 -5 -7 -17 -6 -12 1 -28 3 -35 3 -7 1 -10
6 -6 12 4 7 10 7 16 1 6 -6 16 -8 23 -6z m2389 -207 c-4 -8 7 -12 26 -11 3 0
6 -13 6 -29 2 -27 1 -28 -12 -12 -13 17 -14 17 -8 1 4 -11 1 -18 -6 -18 -6 0
-9 4 -6 9 7 11 -20 34 -32 27 -6 -3 -9 2 -8 12 0 9 -5 16 -12 14 -8 -1 -11 2
-7 8 5 8 11 7 21 -1 11 -9 18 -9 26 -1 9 9 8 12 -6 12 -9 0 -14 5 -11 10 5 8
11 7 21 -1 7 -6 11 -15 8 -20z m-14 -59 c0 -5 -2 -10 -4 -10 -3 0 -8 5 -11 10
-3 6 -1 10 4 10 6 0 11 -4 11 -10z m30 -62 c0 -5 -5 -8 -11 -8 -5 0 -8 4 -4 9
3 5 1 12 -5 16 -5 3 -10 11 -10 18 0 12 29 -23 30 -35z m-2520 -433 c14 -19
14 -19 -2 -6 -10 7 -18 18 -18 24 0 6 1 8 3 6 1 -2 9 -13 17 -24z m35 -105 c3
-5 2 -10 -4 -10 -5 0 -13 5 -16 10 -3 6 -2 10 4 10 5 0 13 -4 16 -10z m-2 -57
c-7 -2 -13 -9 -13 -14 0 -6 6 -7 13 -3 7 5 6 0 -3 -11 -14 -17 -13 -17 10 -12
14 4 20 4 13 1 -7 -3 -10 -11 -7 -19 7 -17 -12 -29 -22 -14 -4 8 -3 9 4 5 21
-13 13 5 -10 24 -19 15 -20 20 -9 34 7 9 19 16 25 15 7 0 6 -2 -1 -6z m2412
-63 c3 -6 -1 -7 -9 -4 -18 7 -21 14 -7 14 6 0 13 -4 16 -10z m-2352 -85 c-3
-9 -8 -14 -10 -11 -3 3 -2 9 2 15 9 16 15 13 8 -4z m2305 -74 c-4 9 -1 16 7
16 10 0 11 -5 4 -19 -12 -23 -12 -23 -35 5 l-19 22 24 -20 c19 -15 23 -16 19
-4z m-13 -51 c-7 -8 -14 -19 -14 -24 -1 -12 -51 -17 -51 -5 0 5 3 8 8 8 20 -3
32 2 26 13 -4 6 -3 8 3 5 6 -4 13 0 17 8 3 8 1 15 -4 15 -6 0 -10 5 -10 10 0
6 8 5 20 -2 16 -11 17 -14 5 -28z m-64 -128 c-6 -2 -18 1 -28 7 -11 6 -13 11
-5 11 8 0 10 5 6 13 -4 6 3 3 15 -8 12 -11 18 -21 12 -23z m-2045 -51 c-3 -5
1 -12 9 -15 8 -3 14 -11 13 -18 -2 -7 2 -12 9 -13 6 0 15 -4 20 -8 4 -5 4 -8
-2 -7 -20 4 -30 -1 -17 -9 11 -7 10 -9 -3 -14 -9 -4 -14 -3 -11 2 3 4 -6 18
-19 31 -19 18 -22 27 -14 41 5 11 12 19 15 19 3 0 3 -4 0 -9z m1860 -126 c4
-8 11 -12 17 -8 6 3 7 1 3 -6 -4 -6 -11 -9 -16 -6 -5 3 -11 1 -15 -5 -4 -6
-11 -8 -16 -4 -5 3 -7 10 -3 15 3 5 10 7 15 4 5 -4 9 -2 9 4 0 5 -6 12 -12 14
-10 4 -10 6 0 6 7 1 15 -6 18 -14z m-1622 -98 c4 5 7 4 6 -2 -1 -5 -2 -17 -1
-25 1 -13 2 -13 11 0 6 9 10 10 10 3 0 -23 -17 -22 -50 2 -19 14 -28 25 -21
25 7 0 9 5 5 13 -4 6 2 4 13 -6 11 -9 23 -14 27 -10z m1386 -67 c0 -5 -2 -10
-4 -10 -3 0 -8 5 -11 10 -3 6 -1 10 4 10 6 0 11 -4 11 -10z m-260 -84 c0 -2
-8 -10 -17 -17 -16 -13 -17 -12 -4 4 13 16 21 21 21 13z m-760 -38 c0 -4 -9
-7 -20 -5 -29 5 -33 13 -5 13 14 0 25 -4 25 -8z m693 -3 c-3 -9 -8 -14 -10
-11 -3 3 -2 9 2 15 9 16 15 13 8 -4z m35 -20 c-8 -17 -17 -24 -27 -20 -12 4
-12 2 2 -9 16 -12 14 -13 -16 -12 -27 1 -33 5 -31 21 1 11 3 25 3 30 1 6 7 1
13 -9 9 -17 12 -17 22 -4 9 12 20 19 43 27 2 1 -3 -10 -9 -24z m-630 -8 c6 3
12 1 12 -4 0 -9 -14 -13 -53 -14 -9 0 -15 -5 -11 -11 4 -6 -2 -6 -15 2 -12 6
-19 16 -15 22 4 7 9 6 14 -2 5 -8 9 -7 13 5 5 11 11 13 24 7 10 -5 24 -7 31
-5z m478 -13 c1 -9 0 -13 -4 -10 -3 4 -7 14 -8 22 -1 9 0 13 4 10 3 -4 7 -14
8 -22z m44 12 c0 -3 -4 -8 -10 -11 -5 -3 -10 -1 -10 4 0 6 5 11 10 11 6 0 10
-2 10 -4z m-478 -20 c7 4 8 2 4 -5 -9 -13 -26 -5 -25 12 0 9 2 8 6 -1 2 -6 10
-9 15 -6z m490 -8 c-7 -7 -12 -8 -12 -2 0 14 12 26 19 19 2 -3 -1 -11 -7 -17z"/>
<path d="M1940 2416 c0 -2 7 -9 15 -16 9 -7 15 -8 15 -2 0 5 -7 12 -15 16 -8
3 -15 4 -15 2z"/>
<path d="M2544 1639 c1 -7 10 -13 19 -15 9 -1 15 2 11 7 -3 5 -9 7 -14 4 -4
-3 -11 0 -13 5 -3 6 -4 5 -3 -1z"/>
<path d="M325 450 c20 -22 34 -28 16 -7 -6 8 -8 17 -4 20 3 4 -2 7 -12 7 -17
0 -17 -1 0 -20z"/>
<path d="M530 266 c0 -2 8 -10 18 -17 15 -13 16 -12 3 4 -13 16 -21 21 -21 13z"/>
<path d="M1590 46 c0 -2 8 -10 18 -17 15 -13 16 -12 3 4 -13 16 -21 21 -21 13z"/>
<path d="M1660 2596 c0 -2 7 -9 15 -16 9 -7 15 -8 15 -2 0 5 -7 12 -15 16 -8
3 -15 4 -15 2z"/>
<path d="M1590 2571 c0 -5 7 -11 14 -14 10 -4 13 -1 9 9 -6 15 -23 19 -23 5z"/>
<path d="M1650 2530 c0 -5 5 -10 11 -10 5 0 7 5 4 10 -3 6 -8 10 -11 10 -2 0
-4 -4 -4 -10z"/>
<path d="M695 2500 c3 -5 8 -10 11 -10 2 0 4 5 4 10 0 6 -5 10 -11 10 -5 0 -7
-4 -4 -10z"/>
<path d="M1830 2499 c0 -6 -4 -8 -9 -4 -5 3 -13 0 -17 -7 -4 -7 -3 -10 1 -5 5
4 16 0 26 -9 20 -18 42 -10 37 13 -3 17 -38 27 -38 12z m30 -14 c0 -9 -6 -12
-16 -8 -13 5 -13 7 -2 14 17 11 18 11 18 -6z"/>
<path d="M651 2438 c-1 -20 14 -24 25 -6 4 6 3 8 -4 4 -5 -3 -13 0 -15 6 -3 8
-6 6 -6 -4z"/>
<path d="M595 2420 c3 -5 8 -10 11 -10 2 0 4 5 4 10 0 6 -5 10 -11 10 -5 0 -7
-4 -4 -10z"/>
<path d="M553 2397 c-3 -6 -1 -7 5 -3 6 3 15 -1 20 -9 8 -15 10 -15 22 0 11
13 10 14 -5 9 -11 -5 -16 -4 -12 3 3 5 -1 10 -9 10 -8 0 -18 -5 -21 -10z"/>
<path d="M163 1961 c-9 -14 -9 -21 0 -31 9 -10 7 -11 -13 -6 -22 6 -23 5 -7
-5 14 -8 22 -8 30 0 6 6 7 11 3 11 -5 0 -4 6 2 13 6 7 8 18 4 24 -6 9 -11 7
-19 -6z"/>
<path d="M2455 1951 c-3 -5 -2 -12 3 -15 5 -3 9 1 9 9 0 17 -3 19 -12 6z"/>
<path d="M75 1740 c3 -5 8 -10 11 -10 2 0 4 5 4 10 0 6 -5 10 -11 10 -5 0 -7
-4 -4 -10z"/>
<path d="M2576 1725 c4 -8 11 -15 16 -15 6 0 5 6 -2 15 -7 8 -14 15 -16 15 -2
0 -1 -7 2 -15z"/>
<path d="M31 1714 c0 -11 3 -14 6 -6 3 7 2 16 -1 19 -3 4 -6 -2 -5 -13z"/>
<path d="M33 1615 c0 -8 4 -12 9 -9 5 3 6 10 3 15 -9 13 -12 11 -12 -6z"/>
<path d="M0 1023 c0 -7 5 -13 10 -13 6 0 10 -5 10 -11 0 -5 -3 -8 -8 -6 -4 3
-8 -14 -8 -36 -1 -23 1 -36 3 -29 3 6 8 10 13 7 4 -2 15 4 24 14 17 18 16 21
-13 53 -17 18 -31 27 -31 21z m39 -69 c-6 -8 -15 -12 -19 -9 -7 4 -7 13 -1 44
1 2 8 -2 16 -9 12 -10 13 -16 4 -26z"/>
<path d="M23 965 c0 -8 4 -12 9 -9 5 3 6 10 3 15 -9 13 -12 11 -12 -6z"/>
<path d="M10 905 c-11 -13 -10 -14 4 -9 9 3 16 10 16 15 0 13 -6 11 -20 -6z"/>
<path d="M20 880 c-8 -5 -10 -10 -5 -10 6 0 17 5 25 10 8 5 11 10 5 10 -5 0
-17 -5 -25 -10z"/>
<path d="M2498 820 c-15 -26 -15 -30 -2 -30 8 0 12 5 9 10 -3 6 2 10 12 11 10
0 13 3 6 5 -7 3 -9 12 -6 20 9 24 -1 15 -19 -16z"/>
<path d="M2473 766 c0 -18 39 -15 44 4 4 13 3 13 -7 0 -9 -11 -13 -12 -17 -2
-6 16 -20 15 -20 -2z"/>
<path d="M114 696 c1 -8 5 -18 8 -22 4 -3 5 1 4 10 -1 8 -5 18 -8 22 -4 3 -5
-1 -4 -10z"/>
<path d="M2480 700 c-9 -6 -10 -10 -3 -10 6 0 15 5 18 10 8 12 4 12 -15 0z"/>
<path d="M212 598 c2 -7 -5 -12 -14 -12 -10 1 -15 -2 -12 -7 3 -5 12 -9 21 -9
9 0 13 -3 10 -7 -8 -8 25 -33 35 -27 5 3 8 12 8 21 0 13 -3 13 -15 3 -15 -13
-20 -5 -16 27 1 6 -3 14 -9 18 -6 4 -9 1 -8 -7z"/>
<path d="M2381 596 c-8 -10 -8 -16 3 -25 9 -8 16 -8 20 -2 4 5 2 12 -4 16 -6
4 -8 11 -5 16 9 14 -1 11 -14 -5z"/>
<path d="M210 526 c0 -2 7 -7 16 -10 8 -3 12 -2 9 4 -6 10 -25 14 -25 6z"/>
<path d="M230 486 c0 -2 7 -7 16 -10 8 -3 12 -2 9 4 -6 10 -25 14 -25 6z"/>
<path d="M2295 460 c-3 -5 -1 -10 4 -10 6 0 11 5 11 10 0 6 -2 10 -4 10 -3 0
-8 -4 -11 -10z"/>
<path d="M2233 407 c0 -8 6 -14 14 -14 9 0 10 4 2 14 -6 7 -12 13 -14 13 -1 0
-2 -6 -2 -13z"/>
<path d="M516 213 c-6 -14 -5 -15 5 -6 7 7 10 15 7 18 -3 3 -9 -2 -12 -12z"/>
<path d="M616 182 c-3 -5 1 -9 9 -9 8 0 12 4 9 9 -3 4 -7 8 -9 8 -2 0 -6 -4
-9 -8z"/>
<path d="M1965 160 c10 -11 20 -20 23 -20 3 0 -3 9 -13 20 -10 11 -20 20 -23
20 -3 0 3 -9 13 -20z"/>
<path d="M1925 159 c-4 -6 -4 -13 -1 -16 3 -4 6 -1 6 6 0 7 5 9 12 5 7 -4 8
-3 4 4 -9 15 -13 15 -21 1z"/>
<path d="M1876 127 c3 -10 9 -15 12 -12 3 3 0 11 -7 18 -10 9 -11 8 -5 -6z"/>
<path d="M1846 122 c-3 -5 1 -9 9 -9 8 0 12 4 9 9 -3 4 -7 8 -9 8 -2 0 -6 -4
-9 -8z"/>
<path d="M884 34 c-18 -14 -18 -14 6 -3 31 14 36 19 24 19 -6 0 -19 -7 -30
-16z"/>
<path d="M910 21 c0 -5 7 -11 14 -14 10 -4 13 -1 9 9 -6 15 -23 19 -23 5z"/>
</g>
</svg>
